<svg xmlns="http://www.w3.org/2000/svg" width="10.167" height="12.167" viewBox="-0.75 -0.75 10.167 12.167">
  <path d="M 0 0 L 0 10.667 L 8.667 5.333 L 0 0 Z" fill="#FFFFFF" fill-rule="nonzero"></path>
  <path d="M 0 0 L 0.393 -0.639 C 0.162 -0.781 -0.129 -0.787 -0.366 -0.655 C -0.603 -0.522 -0.75 -0.272 -0.75 0 L 0 0 Z M 0 10.667 L -0.75 10.667 C -0.75 10.938 -0.603 11.189 -0.366 11.321 C -0.129 11.454 0.162 11.448 0.393 11.305 L 0 10.667 Z M 8.667 5.333 L 9.06 5.972 C 9.282 5.836 9.417 5.594 9.417 5.333 C 9.417 5.073 9.282 4.831 9.06 4.695 L 8.667 5.333 Z M -0.75 0 L -0.75 10.667 L 0.75 10.667 L 0.75 0 L -0.75 0 Z M 0.393 11.305 L 9.06 5.972 L 8.274 4.695 L -0.393 10.028 L 0.393 11.305 Z M 9.06 4.695 L 0.393 -0.639 L -0.393 0.639 L 8.274 5.972 L 9.06 4.695 Z" fill="#FFFFFF" fill-rule="nonzero"></path>
</svg>