<svg xmlns="http://www.w3.org/2000/svg" width="5" height="5" viewBox="0 0 5 5">
  <path d="M -1.25 2.5 C -1.25 3.19 -0.69 3.75 0 3.75 C 0.69 3.75 1.25 3.19 1.25 2.5 L -1.25 2.5 Z M 2.5 0 L 2.5 -1.25 L 2.5 0 Z M 3.75 5 C 3.75 5.69 4.31 6.25 5 6.25 C 5.69 6.25 6.25 5.69 6.25 5 L 3.75 5 Z M 1.25 2.5 C 1.25 2.168 1.382 1.851 1.616 1.616 L -0.152 -0.152 C -0.855 0.552 -1.25 1.505 -1.25 2.5 L 1.25 2.5 Z M 1.616 1.616 C 1.851 1.382 2.168 1.25 2.5 1.25 L 2.5 -1.25 C 1.505 -1.25 0.552 -0.855 -0.152 -0.152 L 1.616 1.616 Z M 2.5 1.25 C 2.832 1.25 3.149 1.382 3.384 1.616 L 5.152 -0.152 C 4.448 -0.855 3.495 -1.25 2.5 -1.25 L 2.5 1.25 Z M 3.384 1.616 C 3.618 1.851 3.75 2.168 3.75 2.5 L 6.25 2.5 C 6.25 1.505 5.855 0.552 5.152 -0.152 L 3.384 1.616 Z M 3.75 2.5 L 3.75 5 L 6.25 5 L 6.25 2.5 L 3.75 2.5 Z" fill="#1C2826" fill-rule="nonzero"></path>
</svg>