<svg xmlns="http://www.w3.org/2000/svg" width="15" height="15" viewBox="0 0 15 15">
  <path d="M 14.583 7.5 C 14.583 11.412 11.412 14.583 7.5 14.583 L 7.5 15.417 C 11.872 15.417 15.417 11.872 15.417 7.5 L 14.583 7.5 Z M 7.5 14.583 C 3.588 14.583 0.417 11.412 0.417 7.5 L -0.417 7.5 C -0.417 11.872 3.128 15.417 7.5 15.417 L 7.5 14.583 Z M 0.417 7.5 C 0.417 3.588 3.588 0.417 7.5 0.417 L 7.5 -0.417 C 3.128 -0.417 -0.417 3.128 -0.417 7.5 L 0.417 7.5 Z M 7.5 0.417 C 11.412 0.417 14.583 3.588 14.583 7.5 L 15.417 7.5 C 15.417 3.128 11.872 -0.417 7.5 -0.417 L 7.5 0.417 Z" fill="#FFFFFF" fill-rule="nonzero"></path>
</svg>